<!--
  Sunspot Cycle Time Series
  Book: Physics +1: Modern Physics
  Chapter: 02-the-sun-a-garden-variety-star
  Figure: 08
  Type: Statistical / quantitative
  Generated: 2026-05-25
  Source: pantry/02-the-sun-a-garden-variety-star-cajal.md
-->
<svg viewBox="0 0 700 420" xmlns="http://www.w3.org/2000/svg"
     role="img" aria-labelledby="fig-title">
  <title id="fig-title">Monthly Smoothed Sunspot Number — 1900 to 2025</title>
  <desc>Plot of monthly smoothed sunspot number versus year from 1900 to 2025. Ten roughly 11-year cycles visible — peaks vary from about 80 to 200 sunspots. Notable deep minimum in 2008-2009. The most recent active cycle is Solar Cycle 25 peaking around 2024 to 2025.</desc>
  <metadata>
    <cajal:figure
      xmlns:cajal="https://bearbrown.ai/cajal/1.0"
      book="Physics +1: Modern Physics"
      book-slug="physics-modern-physics"
      chapter="02-the-sun-a-garden-variety-star"
      figure-number="08"
      figure-title="Sunspot Cycle"
      figure-slug="sunspot-cycle"
      figure-type="quantitative"
      priority="Important"
      author="Humanitarians AI"
      date-generated="2026-05-25"
      source-file="pantry/02-the-sun-a-garden-variety-star-cajal.md"
    />
  </metadata>
  <rect x="0" y="0" width="700" height="420" fill="#FFFFFF"/>

  <text x="32" y="36" font-family="'EB Garamond', 'Garamond', Georgia, serif" font-size="14" fill="#2a1a0e">Sunspot Number — Ten Cycles Across a Century</text>
  <text x="32" y="56" font-family="'Inter', -apple-system, 'Helvetica Neue', sans-serif" font-size="11" fill="#545454">Monthly smoothed counts, 1900–2025. Roughly 11-year periodicity; peak amplitude varies.</text>

  <!-- Axes -->
  <line x1="80" y1="320" x2="660" y2="320" stroke="#2a1a0e" stroke-width="1"/>
  <line x1="80" y1="100" x2="80" y2="320" stroke="#2a1a0e" stroke-width="1"/>

  <!-- Y-axis: 0 to 250 -->
  <g font-family="'JetBrains Mono', 'Fira Code', 'Courier New', monospace" font-size="9" fill="#545454" text-anchor="end">
    <text x="74" y="324">0</text>
    <text x="74" y="280">50</text>
    <text x="74" y="236">100</text>
    <text x="74" y="192">150</text>
    <text x="74" y="148">200</text>
    <text x="74" y="104">250</text>
  </g>
  <g stroke="#2a1a0e" stroke-width="0.5">
    <line x1="75" y1="276" x2="85" y2="276"/>
    <line x1="75" y1="232" x2="85" y2="232"/>
    <line x1="75" y1="188" x2="85" y2="188"/>
    <line x1="75" y1="144" x2="85" y2="144"/>
    <line x1="75" y1="100" x2="85" y2="100"/>
  </g>
  <text x="32" y="210" font-family="'Inter', -apple-system, 'Helvetica Neue', sans-serif" font-size="10" fill="#545454" letter-spacing="0.06em" transform="rotate(-90 32 210)">SUNSPOT NUMBER</text>

  <!-- X-axis: 1900 to 2025 -->
  <g font-family="'JetBrains Mono', 'Fira Code', 'Courier New', monospace" font-size="9" fill="#545454" text-anchor="middle">
    <text x="80" y="336">1900</text>
    <text x="173" y="336">1920</text>
    <text x="266" y="336">1940</text>
    <text x="359" y="336">1960</text>
    <text x="452" y="336">1980</text>
    <text x="545" y="336">2000</text>
    <text x="638" y="336">2020</text>
  </g>
  <g stroke="#2a1a0e" stroke-width="0.5">
    <line x1="173" y1="315" x2="173" y2="325"/>
    <line x1="266" y1="315" x2="266" y2="325"/>
    <line x1="359" y1="315" x2="359" y2="325"/>
    <line x1="452" y1="315" x2="452" y2="325"/>
    <line x1="545" y1="315" x2="545" y2="325"/>
    <line x1="638" y1="315" x2="638" y2="325"/>
  </g>
  <text x="370" y="356" text-anchor="middle" font-family="'Inter', -apple-system, 'Helvetica Neue', sans-serif" font-size="10" fill="#545454" letter-spacing="0.06em">YEAR</text>

  <!-- Sunspot curve (approximate, ~10 cycles peaks at varying heights) -->
  <!-- x position per year: 80 + (year-1900) * 4.64. y(N) = 320 - (N/250)*220 = 320 - 0.88*N -->
  <!-- Cycle peaks approx:
       1907: y=146 (N=200)
       1917: y=187 (N=150)
       1928: y=170 (N=170)
       1937: y=170 (N=170)
       1947: y=144 (N=200)
       1957: y=126 (N=220 — strongest)
       1968: y=174 (N=165)
       1979: y=146 (N=200)
       1989: y=144 (N=200)
       2000: y=190 (N=148)
       2014: y=210 (N=125)
       2024: y=180 (N=160, ongoing) -->
  <path d="M 80 295 Q 90 200 113 146 Q 145 280 173 187 Q 196 220 219 170 Q 240 280 261 170 Q 283 220 308 144 Q 330 220 354 126 Q 377 240 405 174 Q 428 250 456 146 Q 480 240 506 144 Q 530 240 557 190 Q 580 280 605 210 Q 622 280 638 180 L 660 200"
        stroke="#56B4E9" stroke-width="1.5" fill="none"/>

  <!-- 2008-09 minimum marker -->
  <circle cx="585" cy="316" r="3.5" fill="#C8102E"/>
  <line x1="585" y1="316" x2="585" y2="280" stroke="#C8102E" stroke-width="0.5" stroke-dasharray="2 2"/>
  <text x="585" y="272" text-anchor="middle" font-family="'JetBrains Mono', 'Fira Code', 'Courier New', monospace" font-size="9" fill="#C8102E">2008–09</text>
  <text x="585" y="260" text-anchor="middle" font-family="'JetBrains Mono', 'Fira Code', 'Courier New', monospace" font-size="9" fill="#C8102E">deep minimum</text>

  <!-- Solar Cycle 25 marker -->
  <circle cx="638" cy="180" r="3.5" fill="#C8102E"/>
  <text x="638" y="170" text-anchor="middle" font-family="'JetBrains Mono', 'Fira Code', 'Courier New', monospace" font-size="9" fill="#C8102E">Cycle 25</text>

  <!-- Caption -->
  <rect x="80" y="376" width="580" height="36" fill="#F5F5F5" stroke="#C8102E" stroke-width="1.25"/>
  <text x="370" y="398" text-anchor="middle" font-family="'EB Garamond', 'Garamond', Georgia, serif" font-size="11" fill="#2a1a0e">Eleven-year period like clockwork — amplitude unpredictable from cycle to cycle.</text>
</svg>
