<!--
  Photon Energy vs Wavelength — Photoelectric Threshold
  Book: Physics +1: Modern Physics
  Chapter: 04-the-quantum-nature-of-light
  Figure: 03
  Type: Statistical / quantitative
  Generated: 2026-05-25
  Source: pantry/04-the-quantum-nature-of-light-cajal.md
-->
<svg viewBox="0 0 700 420" xmlns="http://www.w3.org/2000/svg"
     role="img" aria-labelledby="fig-title">
  <title id="fig-title">Photon Energy vs Wavelength — Photoelectric Thresholds</title>
  <desc>Hyperbolic curve of photon energy equals h c over lambda. As wavelength shrinks from 700 to 200 nanometers, photon energy rises from about 1.8 to 6.2 eV. Horizontal threshold lines mark work functions of common metals: cesium 2.1, sodium 2.28, calcium 2.71, gold 5.1.</desc>
  <metadata>
    <cajal:figure
      xmlns:cajal="https://bearbrown.ai/cajal/1.0"
      book="Physics +1: Modern Physics"
      book-slug="physics-modern-physics"
      chapter="04-the-quantum-nature-of-light"
      figure-number="03"
      figure-title="Photon Energy Thresholds"
      figure-slug="photon-energy-thresholds"
      figure-type="quantitative"
      priority="Important"
      author="Humanitarians AI"
      date-generated="2026-05-25"
      source-file="pantry/04-the-quantum-nature-of-light-cajal.md"
    />
  </metadata>
  <defs>
    <linearGradient id="visgrad" x1="0%" y1="0%" x2="100%" y2="0%">
      <stop offset="0%" stop-color="#8B00FF"/>
      <stop offset="25%" stop-color="#0080FF"/>
      <stop offset="50%" stop-color="#00FF00"/>
      <stop offset="75%" stop-color="#FFFF00"/>
      <stop offset="100%" stop-color="#FF0000"/>
    </linearGradient>
  </defs>
  <rect x="0" y="0" width="700" height="420" fill="#FFFFFF"/>

  <text x="32" y="36" font-family="'EB Garamond', 'Garamond', Georgia, serif" font-size="14" fill="#2a1a0e">Photon Energy vs Wavelength — Each Metal Has a Threshold</text>
  <text x="32" y="56" font-family="'Inter', -apple-system, 'Helvetica Neue', sans-serif" font-size="11" fill="#545454">Intensity is irrelevant; frequency is everything. Below cutoff: no electrons, period.</text>

  <line x1="100" y1="320" x2="660" y2="320" stroke="#2a1a0e" stroke-width="1"/>
  <line x1="100" y1="100" x2="100" y2="320" stroke="#2a1a0e" stroke-width="1"/>

  <rect x="212" y="324" width="380" height="14" fill="url(#visgrad)" stroke="#2a1a0e" stroke-width="0.5"/>

  <g font-family="'JetBrains Mono', 'Fira Code', 'Courier New', monospace" font-size="9" fill="#545454" text-anchor="end">
    <text x="94" y="324">0</text>
    <text x="94" y="290">1</text>
    <text x="94" y="256">2</text>
    <text x="94" y="222">3</text>
    <text x="94" y="188">4</text>
    <text x="94" y="154">5</text>
    <text x="94" y="120">6</text>
  </g>
  <g stroke="#2a1a0e" stroke-width="0.5">
    <line x1="95" y1="286" x2="105" y2="286"/>
    <line x1="95" y1="252" x2="105" y2="252"/>
    <line x1="95" y1="218" x2="105" y2="218"/>
    <line x1="95" y1="184" x2="105" y2="184"/>
    <line x1="95" y1="150" x2="105" y2="150"/>
    <line x1="95" y1="116" x2="105" y2="116"/>
  </g>
  <text x="50" y="220" font-family="'Inter', -apple-system, 'Helvetica Neue', sans-serif" font-size="10" fill="#545454" letter-spacing="0.06em" transform="rotate(-90 50 220)">PHOTON ENERGY (eV)</text>

  <g font-family="'JetBrains Mono', 'Fira Code', 'Courier New', monospace" font-size="9" fill="#545454" text-anchor="middle">
    <text x="100" y="358">200</text>
    <text x="212" y="358">300</text>
    <text x="324" y="358">400</text>
    <text x="436" y="358">500</text>
    <text x="548" y="358">600</text>
    <text x="660" y="358">700 nm</text>
  </g>
  <text x="380" y="378" text-anchor="middle" font-family="'Inter', -apple-system, 'Helvetica Neue', sans-serif" font-size="10" fill="#545454" letter-spacing="0.06em">WAVELENGTH (nm)</text>

  <path d="M 100 109 Q 130 130 156 152 Q 184 175 212 180 Q 260 200 324 215 Q 380 226 436 236 Q 490 244 548 250 Q 600 256 660 260" stroke="#2a1a0e" stroke-width="2.5" fill="none"/>
  <text x="180" y="142" font-family="'JetBrains Mono', 'Fira Code', 'Courier New', monospace" font-size="10" fill="#2a1a0e">E = hc/λ</text>

  <line x1="100" y1="147" x2="148" y2="147" stroke="#C8102E" stroke-width="1.25" stroke-dasharray="4 2"/>
  <line x1="148" y1="147" x2="148" y2="338" stroke="#C8102E" stroke-width="0.5" stroke-dasharray="2 2"/>
  <text x="106" y="142" font-family="'JetBrains Mono', 'Fira Code', 'Courier New', monospace" font-size="9" fill="#C8102E">Au 5.1 eV</text>
  <text x="148" y="350" text-anchor="middle" font-family="'JetBrains Mono', 'Fira Code', 'Courier New', monospace" font-size="8" fill="#C8102E">243 nm</text>

  <line x1="100" y1="228" x2="389" y2="228" stroke="#C8860E" stroke-width="1.25" stroke-dasharray="4 2"/>
  <line x1="389" y1="228" x2="389" y2="338" stroke="#C8860E" stroke-width="0.5" stroke-dasharray="2 2"/>
  <text x="106" y="222" font-family="'JetBrains Mono', 'Fira Code', 'Courier New', monospace" font-size="9" fill="#C8860E">Ca 2.71 eV</text>
  <text x="389" y="350" text-anchor="middle" font-family="'JetBrains Mono', 'Fira Code', 'Courier New', monospace" font-size="8" fill="#C8860E">458 nm</text>

  <line x1="100" y1="243" x2="485" y2="243" stroke="#56B4E9" stroke-width="1.25" stroke-dasharray="4 2"/>
  <line x1="485" y1="243" x2="485" y2="338" stroke="#56B4E9" stroke-width="0.5" stroke-dasharray="2 2"/>
  <text x="220" y="240" font-family="'JetBrains Mono', 'Fira Code', 'Courier New', monospace" font-size="9" fill="#56B4E9">Na 2.28 eV</text>
  <text x="485" y="320" text-anchor="middle" font-family="'JetBrains Mono', 'Fira Code', 'Courier New', monospace" font-size="8" fill="#56B4E9">544 nm</text>

  <line x1="100" y1="249" x2="537" y2="249" stroke="#545454" stroke-width="1.25" stroke-dasharray="4 2"/>
  <line x1="537" y1="249" x2="537" y2="338" stroke="#545454" stroke-width="0.5" stroke-dasharray="2 2"/>
  <text x="320" y="262" font-family="'JetBrains Mono', 'Fira Code', 'Courier New', monospace" font-size="9" fill="#545454">Cs 2.1 eV</text>

  <rect x="100" y="386" width="560" height="26" fill="#F5F5F5" stroke="#C8102E" stroke-width="1.25"/>
  <text x="380" y="404" text-anchor="middle" font-family="'EB Garamond', 'Garamond', Georgia, serif" font-size="11" fill="#2a1a0e">Calcium needs UV. Cesium responds to green. The metal's identity sets the cutoff.</text>
</svg>
