<!--
  γ as a Function of v/c
  Book: Physics +1: Modern Physics
  Chapter: 09-special-relativity (duplicate of Ch 1 Fig 1.3)
  Figure: 04
  Type: Statistical / quantitative
  Generated: 2026-05-25
  Source: pantry/09-special-relativity-cajal.md
-->
<svg viewBox="0 0 700 420" xmlns="http://www.w3.org/2000/svg"
     role="img" aria-labelledby="fig-title">
  <title id="fig-title">Gamma vs v/c — Linear Below 0.5c, Exponential Above</title>
  <desc>Plot of gamma equals one over square root of one minus v squared over c squared. From v over c equals zero to one, the curve sits near one until about 0.5 c, then climbs steeply and diverges at v equals c. Markers at v over c of 0.5, 0.87, 0.95, 0.99 show gamma values of 1.16, 2.03, 3.20, 7.09.</desc>
  <metadata>
    <cajal:figure
      xmlns:cajal="https://bearbrown.ai/cajal/1.0"
      book="Physics +1: Modern Physics"
      book-slug="physics-modern-physics"
      chapter="09-special-relativity"
      figure-number="04"
      figure-title="Gamma vs v/c"
      figure-slug="gamma-vs-vc-9"
      figure-type="quantitative"
      priority="Important"
      author="Humanitarians AI"
      date-generated="2026-05-25"
      source-file="pantry/09-special-relativity-cajal.md"
    />
  </metadata>
  <rect x="0" y="0" width="700" height="420" fill="#FFFFFF"/>

  <text x="32" y="36" font-family="'EB Garamond', 'Garamond', Georgia, serif" font-size="14" fill="#2a1a0e">γ as a Function of v/c — Asymptote at c</text>
  <text x="32" y="56" font-family="'Inter', -apple-system, 'Helvetica Neue', sans-serif" font-size="11" fill="#545454">See Ch 1 Fig 1.3 for the identical curve. y-axis from 1 (rest-frame floor).</text>

  <line x1="100" y1="340" x2="640" y2="340" stroke="#2a1a0e" stroke-width="1"/>
  <line x1="100" y1="80" x2="100" y2="340" stroke="#2a1a0e" stroke-width="1"/>

  <g font-family="'JetBrains Mono', 'Fira Code', 'Courier New', monospace" font-size="9" fill="#545454" text-anchor="end">
    <text x="94" y="344">1</text>
    <text x="94" y="284">2.5</text>
    <text x="94" y="224">5</text>
    <text x="94" y="164">7.5</text>
    <text x="94" y="104">10</text>
  </g>
  <g stroke="#2a1a0e" stroke-width="0.5">
    <line x1="95" y1="280" x2="105" y2="280"/>
    <line x1="95" y1="220" x2="105" y2="220"/>
    <line x1="95" y1="160" x2="105" y2="160"/>
    <line x1="95" y1="100" x2="105" y2="100"/>
  </g>
  <text x="50" y="210" font-family="'Inter', -apple-system, 'Helvetica Neue', sans-serif" font-size="10" fill="#545454" letter-spacing="0.06em" transform="rotate(-90 50 210)">γ (Lorentz factor)</text>

  <g font-family="'JetBrains Mono', 'Fira Code', 'Courier New', monospace" font-size="9" fill="#545454" text-anchor="middle">
    <text x="100" y="356">0</text>
    <text x="208" y="356">0.2</text>
    <text x="316" y="356">0.4</text>
    <text x="424" y="356">0.6</text>
    <text x="532" y="356">0.8</text>
    <text x="640" y="356">1.0</text>
  </g>
  <text x="370" y="378" text-anchor="middle" font-family="'Inter', -apple-system, 'Helvetica Neue', sans-serif" font-size="10" fill="#545454" letter-spacing="0.06em">v / c</text>

  <line x1="640" y1="80" x2="640" y2="340" stroke="#C8102E" stroke-width="1" stroke-dasharray="3 3"/>
  <text x="635" y="72" text-anchor="end" font-family="'JetBrains Mono', 'Fira Code', 'Courier New', monospace" font-size="9" fill="#C8102E">γ → ∞ at v = c</text>

  <!-- γ curve, same as Ch 1 Fig 1.3 -->
  <path d="M 100 340 L 154 340 L 208 339 L 262 339 L 316 337 L 370 335 L 424 333 L 478 329 L 532 321 Q 552 311 568 303 Q 595 277 610 240 Q 625 190 632 140 Q 638 100 640 80" stroke="#56B4E9" stroke-width="2.5" fill="none"/>

  <circle cx="370" cy="335" r="3.5" fill="#56B4E9"/>
  <text x="370" y="324" text-anchor="middle" font-family="'JetBrains Mono', 'Fira Code', 'Courier New', monospace" font-size="9" fill="#56B4E9">1.16</text>

  <circle cx="570" cy="311" r="3.5" fill="#56B4E9"/>
  <text x="558" y="306" text-anchor="end" font-family="'JetBrains Mono', 'Fira Code', 'Courier New', monospace" font-size="9" fill="#56B4E9">2.03 (0.87c)</text>

  <circle cx="613" cy="230" r="3.5" fill="#56B4E9"/>
  <text x="606" y="226" text-anchor="end" font-family="'JetBrains Mono', 'Fira Code', 'Courier New', monospace" font-size="9" fill="#56B4E9">3.2 (0.95c)</text>

  <circle cx="632" cy="167" r="3.5" fill="#C8102E"/>
  <text x="624" y="160" text-anchor="end" font-family="'JetBrains Mono', 'Fira Code', 'Courier New', monospace" font-size="9" fill="#C8102E">7.1 (0.99c)</text>

  <rect x="120" y="100" width="180" height="40" fill="#F5F5F5" stroke="#56B4E9" stroke-width="1"/>
  <text x="210" y="124" text-anchor="middle" font-family="'JetBrains Mono', 'Fira Code', 'Courier New', monospace" font-size="11" fill="#56B4E9">γ = 1 / √(1 − v²/c²)</text>

  <rect x="100" y="390" width="540" height="20" fill="#F5F5F5" stroke="#C8102E" stroke-width="1.25"/>
  <text x="370" y="405" text-anchor="middle" font-family="'EB Garamond', 'Garamond', Georgia, serif" font-size="11" fill="#2a1a0e">Everyday γ ≈ 1 to twenty decimal places. The wall sits at c.</text>
</svg>
