<!--
  CMB Angular Power Spectrum
  Book: Physics +1: Modern Physics
  Chapter: 11-the-big-bang
  Figure: 04
  Type: Statistical / quantitative
  Generated: 2026-05-25
  Source: pantry/11-the-big-bang-cajal.md
-->
<svg viewBox="0 0 700 420" xmlns="http://www.w3.org/2000/svg"
     role="img" aria-labelledby="fig-title">
  <title id="fig-title">CMB Angular Power Spectrum — Acoustic Peaks Match Theory</title>
  <desc>Plot of temperature fluctuation power versus multipole moment l. Three prominent acoustic peaks visible. First peak around l equals 200 sets the spatial flatness of the universe. Second peak measures the baryon density. Third peak measures the dark matter density. Data points (Planck) match the lambda CDM theory curve to remarkable precision.</desc>
  <metadata>
    <cajal:figure
      xmlns:cajal="https://bearbrown.ai/cajal/1.0"
      book="Physics +1: Modern Physics"
      book-slug="physics-modern-physics"
      chapter="11-the-big-bang"
      figure-number="04"
      figure-title="CMB Power Spectrum"
      figure-slug="cmb-power-spectrum"
      figure-type="quantitative"
      priority="Critical"
      author="Humanitarians AI"
      date-generated="2026-05-25"
      source-file="pantry/11-the-big-bang-cajal.md"
    />
  </metadata>
  <rect x="0" y="0" width="700" height="420" fill="#FFFFFF"/>

  <text x="32" y="36" font-family="'EB Garamond', 'Garamond', Georgia, serif" font-size="14" fill="#2a1a0e">CMB Angular Power Spectrum — Three Peaks, Three Cosmological Parameters</text>
  <text x="32" y="56" font-family="'Inter', -apple-system, 'Helvetica Neue', sans-serif" font-size="11" fill="#545454">Best agreement of any theory with any data in physics.</text>

  <!-- Axes -->
  <line x1="100" y1="340" x2="660" y2="340" stroke="#2a1a0e" stroke-width="1"/>
  <line x1="100" y1="100" x2="100" y2="340" stroke="#2a1a0e" stroke-width="1"/>

  <text x="50" y="220" font-family="'Inter', -apple-system, 'Helvetica Neue', sans-serif" font-size="10" fill="#545454" letter-spacing="0.06em" transform="rotate(-90 50 220)">D_ℓ (µK²)</text>
  <text x="380" y="376" text-anchor="middle" font-family="'Inter', -apple-system, 'Helvetica Neue', sans-serif" font-size="10" fill="#545454" letter-spacing="0.06em">MULTIPOLE MOMENT ℓ (log)</text>

  <g font-family="'JetBrains Mono', 'Fira Code', 'Courier New', monospace" font-size="9" fill="#545454" text-anchor="middle">
    <text x="100" y="356">2</text>
    <text x="208" y="356">10</text>
    <text x="316" y="356">100</text>
    <text x="424" y="356">500</text>
    <text x="532" y="356">1000</text>
    <text x="660" y="356">2500</text>
  </g>

  <g font-family="'JetBrains Mono', 'Fira Code', 'Courier New', monospace" font-size="9" fill="#545454" text-anchor="end">
    <text x="94" y="344">0</text>
    <text x="94" y="244">3000</text>
    <text x="94" y="144">6000</text>
  </g>

  <!-- ΛCDM theoretical curve with three peaks -->
  <!-- Peak 1: ℓ ≈ 200, x ≈ 340. Peak 2: ℓ ≈ 540, x ≈ 432. Peak 3: ℓ ≈ 800, x ≈ 480. -->
  <path d="M 100 320 Q 180 290 250 240 Q 310 160 340 130 Q 380 200 410 240 Q 430 220 460 200 Q 490 220 520 250 Q 540 240 560 240 Q 580 260 600 280 Q 630 300 660 320" stroke="#56B4E9" stroke-width="2.5" fill="none"/>

  <!-- Data points (small vermillion circles with error bars) along the curve -->
  <g fill="#C8102E">
    <circle cx="160" cy="296" r="2.5"/>
    <circle cx="200" cy="278" r="2.5"/>
    <circle cx="240" cy="244" r="2.5"/>
    <circle cx="280" cy="200" r="2.5"/>
    <circle cx="320" cy="150" r="2.5"/>
    <circle cx="340" cy="132" r="2.5"/>
    <circle cx="370" cy="170" r="2.5"/>
    <circle cx="400" cy="230" r="2.5"/>
    <circle cx="430" cy="222" r="2.5"/>
    <circle cx="460" cy="200" r="2.5"/>
    <circle cx="490" cy="218" r="2.5"/>
    <circle cx="520" cy="248" r="2.5"/>
    <circle cx="555" cy="240" r="2.5"/>
    <circle cx="590" cy="278" r="2.5"/>
    <circle cx="620" cy="298" r="2.5"/>
  </g>

  <!-- Peak annotations -->
  <line x1="340" y1="130" x2="340" y2="100" stroke="#545454" stroke-width="0.5" stroke-dasharray="2 2"/>
  <text x="340" y="94" text-anchor="middle" font-family="'JetBrains Mono', 'Fira Code', 'Courier New', monospace" font-size="9" fill="#56B4E9">peak 1</text>
  <text x="340" y="82" text-anchor="middle" font-family="'JetBrains Mono', 'Fira Code', 'Courier New', monospace" font-size="8" fill="#545454">geometry · flat universe</text>

  <line x1="460" y1="200" x2="460" y2="156" stroke="#545454" stroke-width="0.5" stroke-dasharray="2 2"/>
  <text x="460" y="148" text-anchor="middle" font-family="'JetBrains Mono', 'Fira Code', 'Courier New', monospace" font-size="9" fill="#56B4E9">peak 2</text>
  <text x="460" y="136" text-anchor="middle" font-family="'JetBrains Mono', 'Fira Code', 'Courier New', monospace" font-size="8" fill="#545454">baryon density</text>

  <line x1="555" y1="240" x2="555" y2="196" stroke="#545454" stroke-width="0.5" stroke-dasharray="2 2"/>
  <text x="555" y="188" text-anchor="middle" font-family="'JetBrains Mono', 'Fira Code', 'Courier New', monospace" font-size="9" fill="#56B4E9">peak 3</text>
  <text x="555" y="176" text-anchor="middle" font-family="'JetBrains Mono', 'Fira Code', 'Courier New', monospace" font-size="8" fill="#545454">dark matter</text>

  <!-- Caption -->
  <rect x="100" y="386" width="560" height="22" fill="#F5F5F5" stroke="#C8102E" stroke-width="1.25"/>
  <text x="380" y="402" text-anchor="middle" font-family="'EB Garamond', 'Garamond', Georgia, serif" font-size="11" fill="#2a1a0e">Vermillion dots: Planck data. Sky-blue: ΛCDM prediction. The fit is preposterously good.</text>
</svg>
