<!--
  LIGO Schematic + GW150914 (Ch 16 — cites Ch 8 Fig 8.7)
  Book: Physics +1: Modern Physics
  Chapter: 16-frontiers-of-physics
  Figure: 03
  Type: Combined annotated example + statistical
  Generated: 2026-05-25
  Source: pantry/16-frontiers-of-physics-cajal.md
-->
<svg viewBox="0 0 700 460" xmlns="http://www.w3.org/2000/svg"
     role="img" aria-labelledby="fig-title">
  <title id="fig-title">LIGO + GW150914 — A New Observational Channel</title>
  <desc>Top: LIGO L-shaped interferometer with 4 km arms, beamsplitter, mirrors, photodetector, Hanford and Livingston sites 3000 km apart. Bottom: the GW150914 strain waveform — inspiral chirp, merger, ringdown, overlaid for both detectors. See Chapter 8 Figure 8.7 for the first-detection framing. Here the emphasis is on what GW astronomy enables going forward.</desc>
  <metadata>
    <cajal:figure
      xmlns:cajal="https://bearbrown.ai/cajal/1.0"
      book="Physics +1: Modern Physics"
      book-slug="physics-modern-physics"
      chapter="16-frontiers-of-physics"
      figure-number="03"
      figure-title="LIGO + GW150914 (Ch 16)"
      figure-slug="ligo-gw-16"
      figure-type="combined"
      priority="Important"
      author="Humanitarians AI"
      date-generated="2026-05-25"
      source-file="pantry/16-frontiers-of-physics-cajal.md"
    />
  </metadata>
  <rect x="0" y="0" width="700" height="460" fill="#FFFFFF"/>

  <text x="32" y="36" font-family="'EB Garamond', 'Garamond', Georgia, serif" font-size="14" fill="#2a1a0e">GW Astronomy — A New Window on the Universe</text>
  <text x="32" y="56" font-family="'Inter', -apple-system, 'Helvetica Neue', sans-serif" font-size="11" fill="#545454">See Ch 8 Fig 8.7 for the discovery moment. Here: what it opens going forward.</text>

  <!-- LIGO schematic (top) -->
  <text x="180" y="84" text-anchor="middle" font-family="'JetBrains Mono', 'Fira Code', 'Courier New', monospace" font-size="10" fill="#2a1a0e" letter-spacing="0.06em">LIGO INTERFEROMETER</text>

  <line x1="100" y1="160" x2="280" y2="160" stroke="#56B4E9" stroke-width="2.5"/>
  <line x1="100" y1="160" x2="100" y2="280" stroke="#56B4E9" stroke-width="2.5"/>

  <line x1="92" y1="152" x2="108" y2="168" stroke="#C8860E" stroke-width="2"/>
  <text x="80" y="148" text-anchor="end" font-family="'JetBrains Mono', 'Fira Code', 'Courier New', monospace" font-size="8" fill="#C8860E">beamsplitter</text>
  <rect x="278" y="148" width="6" height="24" fill="#2a1a0e"/>
  <text x="290" y="160" font-family="'JetBrains Mono', 'Fira Code', 'Courier New', monospace" font-size="8" fill="#2a1a0e">mirror</text>
  <rect x="88" y="278" width="24" height="6" fill="#2a1a0e"/>
  <text x="100" y="298" text-anchor="middle" font-family="'JetBrains Mono', 'Fira Code', 'Courier New', monospace" font-size="8" fill="#2a1a0e">mirror</text>
  <rect x="50" y="152" width="40" height="16" fill="#C8102E" stroke="#2a1a0e" stroke-width="0.75"/>
  <text x="70" y="146" text-anchor="middle" font-family="'JetBrains Mono', 'Fira Code', 'Courier New', monospace" font-size="8" fill="#C8102E">laser</text>
  <circle cx="180" cy="220" r="8" fill="#FFEE00" stroke="#2a1a0e" stroke-width="0.75"/>
  <text x="195" y="220" font-family="'JetBrains Mono', 'Fira Code', 'Courier New', monospace" font-size="8" fill="#2a1a0e">photodetector</text>

  <line x1="100" y1="180" x2="280" y2="180" stroke="#545454" stroke-width="0.5"/>
  <text x="190" y="194" text-anchor="middle" font-family="'JetBrains Mono', 'Fira Code', 'Courier New', monospace" font-size="9" fill="#545454">4 km arm</text>

  <text x="500" y="120" font-family="'JetBrains Mono', 'Fira Code', 'Courier New', monospace" font-size="9" fill="#56B4E9">Hanford (WA)</text>
  <text x="500" y="138" font-family="'JetBrains Mono', 'Fira Code', 'Courier New', monospace" font-size="9" fill="#C8860E">Livingston (LA)</text>
  <text x="500" y="160" font-family="'JetBrains Mono', 'Fira Code', 'Courier New', monospace" font-size="8" fill="#545454">3000 km apart · 7 ms apart</text>
  <text x="500" y="178" font-family="'JetBrains Mono', 'Fira Code', 'Courier New', monospace" font-size="8" fill="#545454">strain sensitivity 10⁻²¹</text>
  <text x="500" y="200" font-family="'JetBrains Mono', 'Fira Code', 'Courier New', monospace" font-size="8" fill="#C8102E">90+ BH/NS mergers detected since 2015</text>

  <line x1="60" y1="316" x2="660" y2="316" stroke="#2a1a0e" stroke-width="0.5"/>

  <!-- Waveform -->
  <text x="370" y="338" text-anchor="middle" font-family="'JetBrains Mono', 'Fira Code', 'Courier New', monospace" font-size="10" fill="#2a1a0e" letter-spacing="0.06em">GW150914 — INSPIRAL · MERGER · RINGDOWN</text>

  <line x1="80" y1="400" x2="660" y2="400" stroke="#2a1a0e" stroke-width="0.75"/>
  <line x1="80" y1="350" x2="80" y2="430" stroke="#2a1a0e" stroke-width="0.75"/>
  <text x="74" y="402" text-anchor="end" font-family="'JetBrains Mono', 'Fira Code', 'Courier New', monospace" font-size="8" fill="#545454">0</text>
  <text x="660" y="416" text-anchor="end" font-family="'JetBrains Mono', 'Fira Code', 'Courier New', monospace" font-size="8" fill="#545454">time →</text>

  <path d="M 80 400 Q 100 395 120 400 Q 140 405 160 400 Q 175 392 190 400 Q 205 410 220 400 Q 232 388 244 400 Q 256 412 268 400 Q 278 384 288 400 Q 298 416 308 400 Q 316 378 324 400 Q 332 422 340 400 Q 346 372 352 400 Q 358 360 364 396 Q 370 432 376 400 Q 382 376 388 400 Q 394 414 400 400 Q 406 388 412 400 Q 418 408 424 400 Q 430 394 436 400 Q 442 404 448 400 Q 454 397 460 400 L 660 400" stroke="#56B4E9" stroke-width="1.75" fill="none"/>

  <path d="M 80 400 Q 105 396 125 400 Q 145 405 165 400 Q 180 393 195 400 Q 210 410 225 400 Q 237 389 249 400 Q 261 412 273 400 Q 283 385 293 400 Q 303 415 313 400 Q 321 380 329 400 Q 337 420 345 400 Q 351 374 357 400 Q 363 362 369 396 Q 375 430 381 400 Q 387 378 393 400 Q 399 412 405 400 Q 411 390 417 400 Q 423 406 429 400 Q 435 396 441 400 Q 447 402 453 400 Q 459 398 465 400 L 660 400" stroke="#C8102E" stroke-width="1.75" fill="none" opacity="0.7" transform="translate(7 0)"/>

  <text x="180" y="436" text-anchor="middle" font-family="'JetBrains Mono', 'Fira Code', 'Courier New', monospace" font-size="8" fill="#545454">inspiral</text>
  <text x="370" y="436" text-anchor="middle" font-family="'JetBrains Mono', 'Fira Code', 'Courier New', monospace" font-size="8" fill="#C8102E">merger</text>
  <text x="500" y="436" text-anchor="middle" font-family="'JetBrains Mono', 'Fira Code', 'Courier New', monospace" font-size="8" fill="#545454">ringdown</text>

  <text x="370" y="452" text-anchor="middle" font-family="'EB Garamond', 'Garamond', Georgia, serif" font-size="10" fill="#2a1a0e">Now: population statistics, NS equation of state, primordial GW background.</text>
</svg>
